# xmcd
#
# Track frame offsets: 
#        150
#        17240
#        34937
#        50388
#        70441
#        111607
#        129618
#        177632
#        200788
#
# Disc length: 2940 seconds
#
# Revision: 0
# Processed by: cddbd v1.5.2PL0 Copyright (c) Steve Scherf et al.
# Submitted via: ExactAudioCopy v0.99pb5
#
DISCID=910b7a09
DTITLE=Paul Butterfield Blues Band - Strawberry Jam
DYEAR=1900
DGENRE=Blues
TTITLE0=01 Just To be With You
TTITLE1=02 Mystery Train
TTITLE2=03 Tollin' Blues
TTITLE3=04 Cha Cha In Blues
TTITLE4=05 Rock Me
TTITLE5=06 One More Heartache
TTITLE6=07 Strawberry Jam
TTITLE7=08 Come On In This House
TTITLE8=09 Born In Chicago
EXTD=
EXTT0=
EXTT1=
EXTT2=
EXTT3=
EXTT4=
EXTT5=
EXTT6=
EXTT7=
EXTT8=
PLAYORDER=
